<svg xmlns="http://www.w3.org/2000/svg" width="3715.2" height="499.6" viewBox="0 0 3715.2 499.6"><title>border-line</title><g id="Layer_2" data-name="Layer 2"><g id="Old"><polygon points="3615.6 170.6 3705.9 155.4 3656.8 232.7 3615.6 170.6" style="fill:#fff"/><path d="M3696.7,161.6l-40,62.9-33.5-50.7,73.5-12.2m18.5-12.3-107.2,18,48.9,73.7,58.3-91.7Z" style="fill:#ff1744"/></g><g id="Layer_7" data-name="Layer 7"><path d="M2.1,1.4c280.8,417.2,493.4,490.1,634,482,238.4-13.8,314.3-263.1,573-259,261.8,4.2,310.8,261.8,566,261,260-.8,310.1-268.6,573-272,243.5-3.1,307.1,225.4,571,275,143.9,27.1,372.1,5.5,702-273" style="fill:none;stroke:#b2b2b2;stroke-miterlimit:10;stroke-width:5px;stroke-dasharray:20,10"/></g></g></svg>